<?xml version="1.0" encoding="iso-8859-1"?>
<!-- Generator: Adobe Illustrator 19.0.0, SVG Export Plug-In . SVG Version: 6.00 Build 0)  -->
<svg version="1.1" id="Layer_1" xmlns="http://www.w3.org/2000/svg" xmlns:xlink="http://www.w3.org/1999/xlink" x="0px" y="0px"
	 viewBox="0 0 512 512" style="enable-background:new 0 0 512 512;" xml:space="preserve">
<path style="fill:#1D1D1B;" d="M256,512c-61.943,0-120.177-24.122-163.978-67.921S24.101,342.044,24.101,280.101
	c0-53.218,18.479-105.206,52.033-146.387c33.078-40.596,79.312-69.07,130.182-80.176l3.335,15.277
	c-47.428,10.355-90.541,36.91-121.394,74.777C56.969,181.99,39.738,230.47,39.738,280.1c0,119.247,97.015,216.262,216.262,216.262
	S472.262,399.346,472.262,280.1c0-49.623-17.226-98.097-48.506-136.493c-30.845-37.862-73.947-64.422-121.366-74.783l3.339-15.277
	c50.859,11.114,97.081,39.592,130.151,80.184c33.545,41.177,52.019,93.159,52.019,146.369c0,61.943-24.122,120.177-67.921,163.978
	S317.943,512,256,512z"/>
<rect x="248.176" style="fill:#36A9E1;" width="15.637" height="168.06"/>
<g>
</g>
<g>
</g>
<g>
</g>
<g>
</g>
<g>
</g>
<g>
</g>
<g>
</g>
<g>
</g>
<g>
</g>
<g>
</g>
<g>
</g>
<g>
</g>
<g>
</g>
<g>
</g>
<g>
</g>
</svg>
