<?xml version="1.0" encoding="iso-8859-1"?>
<!-- Generator: Adobe Illustrator 19.0.0, SVG Export Plug-In . SVG Version: 6.00 Build 0)  -->
<svg version="1.1" id="Layer_1" xmlns="http://www.w3.org/2000/svg" xmlns:xlink="http://www.w3.org/1999/xlink" x="0px" y="0px"
	 viewBox="0 0 511.972 511.972" style="enable-background:new 0 0 511.972 511.972;" xml:space="preserve">
<polygon style="fill:#5D9CEC;" points="437.973,146.664 259.985,81.996 74.668,145.32 7.336,273.985 76.668,348.652 
	433.318,345.309 498.642,273.313 "/>
<g>
	<path style="fill:#FFCE54;" d="M340.479,330.481l-40.996-2.5h-82.496h-38.998l-91.995,13.5l5,37.998l129.492-19
		c0,0,69.996-2,71.996,0s64.996,4,64.996,4l48.496,12.5h20.5v-31.607L340.479,330.481z"/>
	<path style="fill:#FFCE54;" d="M289.983,161.491c-2.5-2,8-19.999,8-19.999l-16-20.999l-25.998,5.5l-11.999,3l-15-8.5
		l-15.499,16.499l5.5,28.998l-5.5,36.498l13.5,12.843l28.998,10.656l37.498-14.499l11.499-17.499
		C304.982,193.989,292.483,163.491,289.983,161.491z"/>
</g>
<polygon style="fill:#656D78;" points="406.475,379.479 370.416,367.807 304.982,365.401 236.486,365.401 186.974,365.401
	121.665,374.979 85.995,383.478 122.993,415.476 197.426,430.475 233.986,432.975 310.481,427.975 378.977,413.476 400.476,399.977
	418.975,383.478 "/>
<path d="M510.844,267.219l-63.996-127.992c0-0.016,0-0.016,0-0.016c-0.141-0.25-0.281-0.5-0.422-0.734
	c-0.031-0.047-0.062-0.109-0.094-0.156c-0.141-0.234-0.297-0.453-0.453-0.672c-0.047-0.047-0.094-0.125-0.141-0.188
	c-0.125-0.172-0.281-0.344-0.438-0.5c-0.078-0.094-0.156-0.188-0.234-0.281c-0.125-0.141-0.266-0.266-0.406-0.391
	c-0.125-0.109-0.234-0.234-0.359-0.344s-0.25-0.203-0.375-0.297c-0.156-0.125-0.312-0.25-0.469-0.359
	c-0.031-0.016-0.062-0.047-0.109-0.078c-0.094-0.062-0.188-0.125-0.281-0.188c-0.156-0.094-0.328-0.203-0.5-0.297
	c-0.156-0.078-0.297-0.172-0.453-0.234c-0.156-0.094-0.312-0.156-0.453-0.219c-0.188-0.094-0.375-0.156-0.547-0.234
	c-0.094-0.031-0.172-0.078-0.25-0.109L259.532,69.934c-2.297-0.812-4.797-0.812-7.094,0L71.113,133.93
	c-0.078,0.031-0.156,0.078-0.234,0.109c-0.188,0.078-0.367,0.141-0.547,0.219c-0.156,0.078-0.305,0.141-0.453,0.219
	c-0.156,0.078-0.312,0.156-0.469,0.234c-0.164,0.094-0.328,0.203-0.484,0.312c-0.094,0.062-0.188,0.109-0.281,0.172
	c-0.039,0.016-0.078,0.047-0.117,0.078c-0.164,0.125-0.312,0.25-0.469,0.359c-0.125,0.109-0.257,0.203-0.382,0.312
	s-0.242,0.219-0.359,0.328c-0.141,0.141-0.273,0.266-0.406,0.406c-0.086,0.094-0.172,0.188-0.258,0.297
	c-0.148,0.172-0.289,0.328-0.422,0.484c-0.07,0.094-0.125,0.188-0.188,0.281c-0.141,0.188-0.281,0.375-0.406,0.578
	c-0.055,0.078-0.102,0.172-0.156,0.266c-0.117,0.203-0.242,0.406-0.352,0.625c-0.008,0.016-0.016,0.031-0.023,0.047L1.11,268.298
	c-1.93,3.891-1.305,8.562,1.57,11.812l71.98,81.244v17.297c0,0.703,0.078,1.405,0.211,2.093l0,0
	c1.664,8.312,10.616,22.14,30.381,33.764c31.74,18.671,82.456,28.14,150.733,28.14s118.992-9.469,150.74-28.14
	c19.766-11.624,28.718-25.452,30.373-33.764l0,0c0.141-0.688,0.219-1.39,0.219-2.093v-17.328l72.012-82.307
	C512.188,275.766,512.782,271.094,510.844,267.219z M415.975,364.01c-23.295-6.5-74.887-17.357-159.99-17.357
	c-85.096,0-136.695,10.857-159.99,17.357v-9.687c17.421-5.344,69.191-18.343,159.99-18.343c90.979,0,142.647,12.999,159.99,18.327
	V364.01z M415.975,332.044c-23.311-6.516-74.996-17.389-159.99-17.389c-84.885,0-136.648,10.889-159.99,17.389v-17.389
	c0-2.859,5.992-16.422,35.318-30.358c22.022-10.483,61.52-22.968,124.672-22.968c62.105,0,101.729,12.797,124.023,23.546
	c27.061,13.03,35.842,26.39,35.967,29.78V332.044z M255.985,421.319c-105.876,0-142.437-23.561-154.569-36.653
	c21.233-5.937,71.121-16.687,154.569-16.687c83.026,0,133.18,10.781,154.553,16.718C398.367,397.79,361.792,421.319,255.985,421.319
	z M437.317,328.934v-14.279c0-15.812-18.17-34.467-47.402-48.701c-24.359-11.843-67.371-25.968-133.93-25.968
	c-118.313,0-181.325,43.374-181.325,74.668v14.545l-51.247-57.855l52.715-106.291l53.317,78.011c2.07,3.015,5.414,4.64,8.82,4.64
	c2.07,0,4.164-0.594,6.007-1.844c4.859-3.328,6.109-9.968,2.789-14.827l-55.762-81.604l164.685-58.121l164.646,58.121
	l-56.106,81.573c-3.343,4.859-2.108,11.5,2.75,14.827c1.844,1.281,3.953,1.875,6.03,1.875c3.391,0,6.734-1.594,8.797-4.609
	l53.747-78.167l52.716,105.432L437.317,328.934z"/>
<path d="M307.92,169.053c-1.516-2.719-3.078-5.515-4.25-8.625c-1.453-3.844-1.453-3.844,2.562-7.906l4.093-4.172
	c0.016-0.016,0.047-0.031,0.062-0.047c2.297-2.375,3.562-5.5,3.562-8.78c0-3.734-1.656-7.25-4.531-9.656l-0.422-0.344
	c-0.031-0.031-0.047-0.031-0.062-0.062l-21.514-17.733c-2.328-2.016-5.266-3.109-8.328-3.109c-0.234,0-0.469,0-0.688,0.031
	c-3.155,0.156-6.108,1.5-8.335,3.75c-0.094,0.094-0.188,0.188-0.273,0.281c-0.875,0.953-1.75,1.922-2.202,2.438
	c-0.023-0.031-0.047-0.062-0.07-0.094c-1-1.109-2.156-2.266-3.172-3.172l-0.086-0.078c-0.281-0.25-0.578-0.484-0.883-0.703
	c-2.078-1.484-4.492-2.328-6.961-2.438c-0.32-0.016-0.633-0.016-0.945,0c-2.695,0.125-5.328,1.141-7.429,2.859
	c-0.125,0.094-0.258,0.203-0.383,0.312c-1.023,0.938-2.188,2.094-3.203,3.203c-0.023,0.031-0.055,0.078-0.086,0.109
	c-0.031-0.031-0.055-0.062-0.086-0.094c-0.351-0.406-1.179-1.328-1.984-2.219c-0.141-0.156-0.289-0.312-0.438-0.469
	c-2.438-2.391-5.641-3.719-9.015-3.719c-3.031,0-5.945,1.078-8.234,3.047l-21.725,17.921c-0.039,0.031-0.078,0.062-0.117,0.094
	l-0.289,0.25c-2.836,2.406-4.461,5.906-4.461,9.593c0,3.281,1.266,6.406,3.555,8.765c0.023,0.016,0.047,0.047,0.07,0.078
	l4.093,4.156c4.008,4.062,4.008,4.062,2.562,7.906c-1.211,3.188-2.852,6.109-4.328,8.734c-3.07,5.515-6.555,11.733-6.555,19.92
	c0,10.25,3.461,19.53,10.015,26.874c6.25,7.015,14.874,11.921,25.647,14.593c9.539,2.359,10.062,2.781,14.968,6.656
	c1.641,1.312,3.68,2.188,6.046,2.625c0.633,0.094,1.266,0.156,1.906,0.156c0.102,0,0.211,0,0.312,0
	c2.766-0.078,5.461-1.062,7.555-2.75c4.937-3.906,5.452-4.312,15.014-6.687c10.766-2.671,19.391-7.578,25.655-14.593
	c6.546-7.343,9.999-16.624,9.999-26.874c0-8.187-3.484-14.421-6.562-19.936L307.92,169.053z M288.624,201.77
	c-3.344,3.734-8.344,6.453-14.874,8.062c-9.476,2.359-13.663,4-17.765,6.687c-4.078-2.688-8.257-4.312-17.765-6.671
	c-6.523-1.625-11.522-4.344-14.858-8.078c-3.062-3.438-4.609-7.687-4.609-12.687c0-2.5,1.468-5.25,3.851-9.515
	c1.727-3.078,3.883-6.891,5.656-11.609c5.258-13.905-0.086-22.467-4.757-27.717l8.531-7.031c2.742,2.562,6.656,5.125,12.062,5.125
	c5.008,0,8.945-2.266,11.89-4.734c2.945,2.469,6.883,4.734,11.891,4.734c5.421,0,9.326-2.562,12.061-5.125l8.531,7.031
	c-4.656,5.25-10.016,13.812-4.75,27.717c1.734,4.609,3.875,8.421,5.578,11.5l0.078,0.125c2.391,4.25,3.844,7,3.844,9.499
	C293.217,194.083,291.671,198.333,288.624,201.77z"/>
<g>
</g>
<g>
</g>
<g>
</g>
<g>
</g>
<g>
</g>
<g>
</g>
<g>
</g>
<g>
</g>
<g>
</g>
<g>
</g>
<g>
</g>
<g>
</g>
<g>
</g>
<g>
</g>
<g>
</g>
</svg>
